<?xml version="1.0" encoding="utf-8"?>
<svg version="1.1" id="Layer_1" xmlns="http://www.w3.org/2000/svg" xmlns:xlink="http://www.w3.org/1999/xlink" x="0px" y="0px" viewBox="0 0 266.8 266.8" xml:space="preserve">
<rect width="266.8" height="266.8" fill="white"/>
<g stroke="#6666AD" stroke-width="2">
	<path fill="#6666AD" d="M191.4,164.69c2.03-1.12,4.48-3.78,4.47-9.75c0-9.25-1.1-45.42-1.23-49.72c0.12-0.19,0.26-0.43,0.43-0.7
		c0.79,0.09,1.61,0.14,2.47,0.14c7.79-0.01,17.76-3.51,22.36-8.25c0.27-0.27,0.48-0.51,0.7-0.76v45.35l-28.18,38.87h3.44
		l24.74-34.12v34.12h2.55h0.24v-34.15l24.74,34.15h3h0.46l-28.2-38.87V90.41h-0.13l-0.13-0.3l-0.01-0.02l-0.01-0.01
		c-0.47-0.8-1.32-1.02-2.1-1.02c-0.81,0-1.6,0.22-2.02,0.35c-3.74,1.06-7,1.7-9.28,2.11c0.02-0.12,0.07-0.24,0.07-0.37l-0.06-0.5
		c-0.36-1.47-2.05-2.61-4.19-2.61c-0.46,0-0.95,0.05-1.45,0.17l-0.54,0.12c-5.46,1.28-11.66,2.72-16.82,4.47
		c-4.91,1.69-8.08,6.41-8.72,10.45h-0.16v27.7c-1.41-1.55-3.66-3.96-7.25-7.82c-5.19-5.64-11.09-6.91-15.33-6.91
		c-2.29,0-4.07,0.37-5.04,0.62c-1.06-1.04-2.12-3.71-2.52-5.32c0.41-0.45,0.82-0.92,1.21-1.44c2.49-3.35,3.8-7.3,3.8-11.37
		c0-0.93-0.07-1.87-0.21-2.81l-2.48-17.15c-1.59-10.67-10.79-18.36-21.29-18.36c-1.02,0-2.06,0.07-3.1,0.22
		c-10.67,1.59-18.36,10.77-18.36,21.27c0,1.02,0.07,2.06,0.22,3.1l2.53,17.13c0.73,5.11,3.46,9.45,7.27,12.34
		c-0.16,0.84-0.48,1.82-0.83,2.36c-0.98-0.24-2.72-0.59-4.93-0.59c-4.25,0-10.17,1.27-15.37,6.9c-3.56,3.86-5.81,6.27-7.22,7.82
		v-27.7h-0.16c-0.64-4.04-3.8-8.76-8.71-10.45c-5.19-1.75-11.37-3.2-16.82-4.47l0,0l-0.57-0.12l0,0c-0.5-0.12-0.98-0.17-1.44-0.17
		c-2.14,0-3.82,1.15-4.2,2.61l-0.06,0.47c0,0.14,0.04,0.27,0.07,0.41c-2.28-0.41-5.52-1.05-9.26-2.11c-0.42-0.12-1.2-0.34-2.01-0.34
		c-0.78,0-1.64,0.22-2.11,1.01l-0.01,0.01l-0.13,0.32h-0.15v50.58l-28.18,38.87h3.44l24.74-34.1l0,34.1h2.58h0.24v-34.12
		l24.74,34.12h2.96h0.46l-28.16-38.85V95.65c0.22,0.25,0.43,0.49,0.68,0.75c4.63,4.75,14.6,8.25,22.39,8.25
		c0.85,0,1.67-0.05,2.46-0.14c0.16,0.27,0.3,0.49,0.41,0.67c-0.1,4.18-1.21,40.46-1.21,49.75c-0.01,5.97,2.44,8.63,4.47,9.75
		c1.19,0.66,2.54,0.98,3.99,0.98c2.37,0,4.99-0.86,7.6-2.5c4.91-3.1,10.49-9.23,13.5-12.75c0.62,8.38,2.23,29.97,2.23,36.57l0,0.14
		l0,0.37c0,3.81,0.36,5.94,1.56,7.34c1.21,1.39,3.15,1.95,6.2,2.73l0,0l0,0c0.65,0.14,1.36,0.33,2.12,0.52
		c7.4,2.02,21.25,8.03,21.36,8.09l0.01,0l0.5,0.22l0.11,0.05l0.57-0.32l0,0c0.07-0.03,0.22-0.11,0.54-0.27
		c2.39-1.2,12.06-6.02,18.5-7.76c0.78-0.19,1.49-0.38,2.14-0.52l0,0l0,0c3.03-0.78,4.98-1.34,6.19-2.73c1.2-1.4,1.57-3.54,1.57-7.35
		l0-0.35l0-0.29c0-6.77,1.59-28.1,2.23-36.42c3.01,3.52,8.57,9.65,13.48,12.75c2.62,1.65,5.24,2.5,7.61,2.5
		C188.85,165.67,190.21,165.35,191.4,164.69z M60.17,91.51c-0.13-0.12-0.25-0.22-0.33-0.3c0.2-0.17,0.67-0.42,1.38-0.42
		c0.25,0,0.53,0.03,0.84,0.1l0.01,0l0.57,0.12c5.39,1.28,11.52,2.69,16.56,4.41c3.86,1.31,6.2,5.01,6.79,7.84l-11.68,0.16
		c-0.14-0.26-0.33-0.6-0.64-1.11l-0.4-0.68l-0.08-0.14l-0.16,0.02l-0.78,0.12c-0.95,0.16-1.98,0.24-3.06,0.24
		c-7,0.01-16.31-3.26-20.32-7.4c-1.11-1.14-1.76-1.93-2.14-2.47c0.1,0.02,0.19,0.05,0.31,0.08c7.41,2.08,12.88,2.65,13.13,2.68
		l5.3,0.54l-4.36-3.05C60.77,92.02,60.44,91.74,60.17,91.51z M133.4,129.5l-14.52-11.34c0.42-0.68,0.7-1.43,0.88-2.11
		c2.76,1.54,5.89,2.38,9.14,2.38c0.93,0,1.87-0.07,2.79-0.19l4.66-0.66c3.38-0.51,6.48-1.89,9.09-3.99
		c0.44,1.34,1.22,3.24,2.38,4.67L133.4,129.5z M135.96,114.79l-4.66,0.69c-0.81,0.12-1.62,0.18-2.42,0.18
		c-7.98,0-14.94-5.86-16.12-13.97l-2.5-17.15c-0.13-0.91-0.2-1.82-0.2-2.71c0-9.1,6.71-17.12,15.97-18.48
		c0.93-0.14,1.85-0.21,2.73-0.21c9.12,0,17.13,6.72,18.48,16.01l2.53,17.13c0.11,0.79,0.17,1.57,0.17,2.34
		C149.94,106.61,144.08,113.63,135.96,114.79z M217.92,94.47c-4.02,4.15-13.33,7.4-20.33,7.4c-1.07,0-2.09-0.08-3.02-0.23
		l-0.81-0.12l-0.16-0.02l-0.48,0.82c-0.3,0.53-0.49,0.86-0.64,1.11l-11.66-0.16c0.6-2.82,2.93-6.53,6.79-7.84
		c5.04-1.72,11.16-3.14,16.57-4.41l0.54-0.12c0.32-0.07,0.6-0.1,0.86-0.1c0.67,0,1.13,0.19,1.37,0.31c-0.08,0.1-0.18,0.24-0.34,0.38
		c-0.26,0.25-0.59,0.53-0.9,0.76l-4.36,3.05l5.3-0.54c0.25-0.02,5.71-0.59,13.1-2.68l0,0c0.12-0.03,0.22-0.05,0.32-0.08
		C219.67,92.54,219.02,93.33,217.92,94.47z M190.04,162.27c-0.74,0.4-1.63,0.6-2.61,0.6c-1.82,0-3.97-0.7-6.15-2.09
		c-3.23-2.03-6.96-5.7-9.89-8.88c-1.46-1.59-2.73-3.05-3.63-4.12c-0.45-0.54-0.81-0.97-1.07-1.28l-0.29-0.36l-0.11-0.13l0,0
		l-2.19-2.76l-0.29,3.53c-0.09,1.31-2.48,31.33-2.48,40l0,0.36l0,0.55c0.01,2.95-0.14,4.4-0.86,5.24c-0.7,0.85-2.14,1.24-4.85,1.92
		c-0.63,0.17-1.37,0.33-2.15,0.55c-6.81,1.83-16.52,6.67-18.99,7.93c-2.79-1.18-14.31-6.1-21.15-7.93
		c-0.78-0.21-1.52-0.38-2.18-0.55c-2.65-0.67-4.08-1.06-4.8-1.88c-0.73-0.8-0.89-2.18-0.89-4.98c0-0.27,0-0.55,0-0.85l0-0.24
		c0-8.53-2.39-38.8-2.48-40.11l-0.28-3.53l-2.2,2.77l0,0c-0.05,0.07-8.53,10.69-14.99,14.76c-2.18,1.39-4.33,2.09-6.15,2.09
		c-0.99,0-1.87-0.2-2.61-0.61c-1.97-1.09-3.04-3.59-3.04-7.33c0-8.74,0.97-41.73,1.17-48.75l11.25-0.14v31.52h0.02l0,7.28
		c0,0.76,0.6,1.39,1.37,1.39c0.77,0,1.39-0.62,1.39-1.39v-9.78c0.71-0.8,2.93-3.15,9.32-10.07c4.58-4.97,9.63-6.07,13.26-6.07
		c2.4,0,4.15,0.48,4.73,0.67l17.17,13.44l17.17-13.44c0.56-0.18,2.32-0.67,4.72-0.67c3.63,0,8.69,1.11,13.27,6.07
		c6.33,6.86,8.56,9.22,9.29,10.04v9.81c0,0.77,0.62,1.39,1.39,1.39c0.77,0,1.39-0.62,1.39-1.39v-38.8l11.28,0.14
		c0.2,7.02,1.17,40.01,1.17,48.75C193.08,158.68,192.01,161.18,190.04,162.27z"/>
	<path fill="#6666AD" d="M11.52,182.63c4.82,13.7,17.89,23.53,33.27,23.53c15.36,0,28.43-9.83,33.27-23.53H11.52z M43.11,204.11
		c0,0,16.92-2.17,17.84-18.26h11.08C72.03,185.85,62.96,204.11,43.11,204.11z"/>
	<path fill="#6666AD" d="M255.28,182.63h-66.54c4.84,13.7,17.91,23.53,33.27,23.53S250.43,196.34,255.28,182.63z M221.3,204.11
		c0,0,16.92-2.17,17.84-18.26h11.08C250.22,185.85,241.15,204.11,221.3,204.11z"/>
</g>
</svg>
